<?xml version="1.0" encoding="UTF-8"?>
<svg width="200" height="200" viewBox="0 0 200 200" xmlns="http://www.w3.org/2000/svg">
  <defs>
    <style>
      .logo-bg { fill: #1a1a1a; }
      .logo-gold { fill: #bfa046; }
    </style>
  </defs>
  
  <!-- Dark circular background -->
  <circle cx="100" cy="100" r="98" class="logo-bg" stroke="#bfa046" stroke-width="2"/>
  
  <!-- Decorative circles and patterns -->
  <g class="logo-gold">
    <!-- Outer decorative rings -->
    <circle cx="100" cy="100" r="90" fill="none" stroke="#bfa046" stroke-width="1" opacity="0.3"/>
    <circle cx="100" cy="100" r="85" fill="none" stroke="#bfa046" stroke-width="1" opacity="0.5"/>
    <circle cx="100" cy="100" r="80" fill="none" stroke="#bfa046" stroke-width="1" opacity="0.7"/>
    
    <!-- Central symbols -->
    <!-- Spiral -->
    <g transform="translate(70, 80)">
      <circle cx="0" cy="0" r="2"/>
      <path d="M 0,0 Q -5,-5 -10,0 Q -15,10 0,15 Q 20,10 15,-5 Q 5,-20 -10,-10" 
            fill="none" stroke="#bfa046" stroke-width="2"/>
    </g>
    
    <!-- Adinkra-style symbol (center) -->
    <g transform="translate(100, 100)">
      <path d="M -8,-8 L 8,8 M 8,-8 L -8,8" stroke="#bfa046" stroke-width="3"/>
      <circle cx="0" cy="0" r="3"/>
    </g>
    
    <!-- Cross pattern -->
    <g transform="translate(130, 80)">
      <path d="M -6,0 L 6,0 M 0,-6 L 0,6" stroke="#bfa046" stroke-width="2"/>
      <rect x="-2" y="-2" width="4" height="4"/>
    </g>
    
    <!-- Decorative elements -->
    <g transform="translate(100, 70)">
      <path d="M -4,-8 L 0,-4 L 4,-8 L 0,0 Z"/>
    </g>
    
    <g transform="translate(100, 130)">
      <path d="M -4,8 L 0,4 L 4,8 L 0,0 Z"/>
    </g>
    
    <!-- Side decorative patterns -->
    <g transform="translate(70, 100)">
      <circle cx="-10" cy="0" r="1"/>
      <circle cx="-15" cy="0" r="1"/>
      <circle cx="-20" cy="0" r="1"/>
    </g>
    
    <g transform="translate(130, 100)">
      <circle cx="10" cy="0" r="1"/>
      <circle cx="15" cy="0" r="1"/>
      <circle cx="20" cy="0" r="1"/>
    </g>
    
    <!-- Decorative border dots -->
    <g opacity="0.6">
      <circle cx="100" cy="20" r="1"/>
      <circle cx="100" cy="180" r="1"/>
      <circle cx="20" cy="100" r="1"/>
      <circle cx="180" cy="100" r="1"/>
      
      <circle cx="135" cy="35" r="1"/>
      <circle cx="65" cy="35" r="1"/>
      <circle cx="135" cy="165" r="1"/>
      <circle cx="65" cy="165" r="1"/>
      <circle cx="35" cy="65" r="1"/>
      <circle cx="35" cy="135" r="1"/>
      <circle cx="165" cy="65" r="1"/>
      <circle cx="165" cy="135" r="1"/>
    </g>
  </g>
</svg>
