<!-- Enhanced Product Icons - Custom SVG Collection -->

<!-- FinTech Category -->
<svg id="icon-goldbod" xmlns="http://www.w3.org/2000/svg" viewBox="0 0 64 64" width="48" height="48">
  <defs>
    <linearGradient id="goldGrad" x1="0%" y1="0%" x2="100%" y2="100%">
      <stop offset="0%" style="stop-color:#ffd700;stop-opacity:1" />
      <stop offset="100%" style="stop-color:#b8860b;stop-opacity:1" />
    </linearGradient>
  </defs>
  <circle cx="32" cy="32" r="28" fill="url(#goldGrad)" stroke="#b8860b" stroke-width="2"/>
  <circle cx="32" cy="32" r="20" fill="#ffffff" opacity="0.3"/>
  <text x="32" y="38" font-family="Arial" font-size="16" font-weight="bold" text-anchor="middle" fill="#ffffff">AU</text>
  <circle cx="32" cy="32" r="30" fill="none" stroke="#ffd700" stroke-width="1" stroke-dasharray="4,2"/>
</svg>

<svg id="icon-gimts" xmlns="http://www.w3.org/2000/svg" viewBox="0 0 64 64" width="48" height="48">
  <rect width="64" height="64" rx="12" fill="#1e40af"/>
  <rect x="12" y="20" width="40" height="24" rx="4" fill="#ffffff"/>
  <rect x="16" y="24" width="32" height="3" fill="#1e40af"/>
  <rect x="16" y="30" width="24" height="2" fill="#6b7280"/>
  <rect x="16" y="35" width="20" height="2" fill="#6b7280"/>
  <circle cx="44" cy="36" r="4" fill="#ffd700"/>
  <text x="44" y="39" font-family="Arial" font-size="6" font-weight="bold" text-anchor="middle" fill="#1e40af">$</text>
</svg>

<!-- EduTech Category -->
<svg id="icon-ctap" xmlns="http://www.w3.org/2000/svg" viewBox="0 0 64 64" width="48" height="48">
  <rect width="64" height="64" rx="8" fill="#059669"/>
  <rect x="12" y="16" width="40" height="32" rx="4" fill="#ffffff"/>
  <rect x="16" y="20" width="32" height="2" fill="#059669"/>
  <rect x="16" y="26" width="28" height="2" fill="#6b7280"/>
  <rect x="16" y="30" width="24" height="2" fill="#6b7280"/>
  <rect x="16" y="34" width="20" height="2" fill="#6b7280"/>
  <circle cx="20" cy="42" r="2" fill="#059669"/>
  <circle cx="28" cy="42" r="2" fill="#059669"/>
  <circle cx="36" cy="42" r="2" fill="#059669"/>
  <polygon points="48,35 52,39 48,43" fill="#059669"/>
</svg>

<!-- IoT/Tech Category -->
<svg id="icon-iot" xmlns="http://www.w3.org/2000/svg" viewBox="0 0 64 64" width="48" height="48">
  <rect width="64" height="64" rx="8" fill="#7c3aed"/>
  <circle cx="20" cy="20" r="4" fill="#ffffff"/>
  <circle cx="44" cy="20" r="4" fill="#ffffff"/>
  <circle cx="32" cy="32" r="6" fill="#ffffff"/>
  <circle cx="20" cy="44" r="4" fill="#ffffff"/>
  <circle cx="44" cy="44" r="4" fill="#ffffff"/>
  <line x1="24" y1="20" x2="28" y2="28" stroke="#ffffff" stroke-width="2"/>
  <line x1="40" y1="20" x2="36" y2="28" stroke="#ffffff" stroke-width="2"/>
  <line x1="32" y1="38" x2="20" y2="40" stroke="#ffffff" stroke-width="2"/>
  <line x1="32" y1="38" x2="44" y2="40" stroke="#ffffff" stroke-width="2"/>
</svg>

<!-- Logistics Category -->
<svg id="icon-warehouse" xmlns="http://www.w3.org/2000/svg" viewBox="0 0 64 64" width="48" height="48">
  <rect width="64" height="64" rx="8" fill="#dc2626"/>
  <polygon points="32,12 52,22 52,52 12,52 12,22" fill="#ffffff"/>
  <rect x="28" y="32" width="8" height="16" fill="#dc2626"/>
  <rect x="18" y="28" width="6" height="4" fill="#dc2626"/>
  <rect x="40" y="28" width="6" height="4" fill="#dc2626"/>
  <rect x="18" y="36" width="6" height="4" fill="#dc2626"/>
  <rect x="40" y="36" width="6" height="4" fill="#dc2626"/>
  <polygon points="32,12 42,18 32,22 22,18" fill="#dc2626"/>
</svg>

<!-- AgriTech Category -->
<svg id="icon-agritech" xmlns="http://www.w3.org/2000/svg" viewBox="0 0 64 64" width="48" height="48">
  <rect width="64" height="64" rx="8" fill="#16a34a"/>
  <circle cx="32" cy="45" r="12" fill="#8b5cf6" opacity="0.3"/>
  <path d="M32 20 Q28 16 24 20 Q20 24 24 28 Q28 32 32 28 Q36 32 40 28 Q44 24 40 20 Q36 16 32 20" fill="#ffffff"/>
  <line x1="32" y1="28" x2="32" y2="40" stroke="#ffffff" stroke-width="3"/>
  <circle cx="26" cy="50" r="2" fill="#ffffff"/>
  <circle cx="32" cy="52" r="2" fill="#ffffff"/>
  <circle cx="38" cy="50" r="2" fill="#ffffff"/>
</svg>

<!-- Email Transfer Category -->
<svg id="icon-email" xmlns="http://www.w3.org/2000/svg" viewBox="0 0 64 64" width="48" height="48">
  <rect width="64" height="64" rx="8" fill="#0ea5e9"/>
  <rect x="12" y="20" width="40" height="24" rx="4" fill="#ffffff"/>
  <polygon points="12,20 32,32 52,20" fill="#0ea5e9"/>
  <circle cx="48" cy="36" r="8" fill="#16a34a"/>
  <text x="48" y="40" font-family="Arial" font-size="8" font-weight="bold" text-anchor="middle" fill="#ffffff">$</text>
</svg>

<!-- Commerce Category -->
<svg id="icon-ecommerce" xmlns="http://www.w3.org/2000/svg" viewBox="0 0 64 64" width="48" height="48">
  <rect width="64" height="64" rx="8" fill="#ea580c"/>
  <rect x="16" y="24" width="32" height="20" rx="2" fill="#ffffff"/>
  <circle cx="24" cy="48" r="4" fill="#ea580c"/>
  <circle cx="40" cy="48" r="4" fill="#ea580c"/>
  <rect x="12" y="16" width="4" height="8" fill="#ffffff"/>
  <rect x="20" y="28" width="24" height="2" fill="#ea580c"/>
  <rect x="20" y="32" width="20" height="2" fill="#ea580c"/>
  <rect x="20" y="36" width="16" height="2" fill="#ea580c"/>
</svg>

<!-- School Management Category -->
<svg id="icon-school" xmlns="http://www.w3.org/2000/svg" viewBox="0 0 64 64" width="48" height="48">
  <rect width="64" height="64" rx="8" fill="#2563eb"/>
  <polygon points="32,16 48,24 48,40 32,48 16,40 16,24" fill="#ffffff"/>
  <rect x="28" y="32" width="8" height="12" fill="#2563eb"/>
  <rect x="22" y="28" width="4" height="8" fill="#2563eb"/>
  <rect x="38" y="28" width="4" height="8" fill="#2563eb"/>
  <polygon points="32,16 38,20 32,24 26,20" fill="#2563eb"/>
  <circle cx="32" cy="52" r="4" fill="#fbbf24"/>
</svg>
